<mxfile host="app.diagrams.net" agent="Mozilla/5.0 (Windows NT 10.0; Win64; x64) AppleWebKit/537.36 (KHTML, like Gecko) Chrome/140.0.0.0 Safari/537.36" version="28.2.5">
  <diagram name="Seite-1" id="b-Xhr_XB4TN2tXRQgmBU">
    <mxGraphModel dx="1426" dy="743" grid="0" gridSize="10" guides="1" tooltips="1" connect="1" arrows="1" fold="1" page="0" pageScale="1" pageWidth="827" pageHeight="1169" background="light-dark(#FFFFFF,#FFFFFF)" math="0" shadow="0">
      <root>
        <mxCell id="0" />
        <mxCell id="1" parent="0" />
        <mxCell id="xkMQPIb6LYT8ctPKMse2-3" value="" style="endArrow=none;html=1;rounded=0;strokeColor=light-dark(#000000,#000000);" parent="1" edge="1">
          <mxGeometry width="50" height="50" relative="1" as="geometry">
            <mxPoint x="253" y="397" as="sourcePoint" />
            <mxPoint x="517" y="245" as="targetPoint" />
          </mxGeometry>
        </mxCell>
        <mxCell id="xkMQPIb6LYT8ctPKMse2-4" value="" style="endArrow=none;html=1;rounded=0;strokeColor=light-dark(#000000,#000000);" parent="1" edge="1">
          <mxGeometry width="50" height="50" relative="1" as="geometry">
            <mxPoint x="253" y="273" as="sourcePoint" />
            <mxPoint x="520" y="360" as="targetPoint" />
          </mxGeometry>
        </mxCell>
        <mxCell id="xkMQPIb6LYT8ctPKMse2-5" value="&lt;i&gt;&lt;font face=&quot;Helvetica&quot; style=&quot;font-size: 13px;&quot;&gt;g&lt;/font&gt;&lt;/i&gt;" style="text;html=1;align=center;verticalAlign=middle;whiteSpace=wrap;rounded=0;fontColor=light-dark(#000000,#000000);fontFamily=arial;" parent="1" vertex="1">
          <mxGeometry x="270" y="250" width="80" height="40" as="geometry" />
        </mxCell>
        <mxCell id="xkMQPIb6LYT8ctPKMse2-6" value="&lt;i&gt;&lt;font face=&quot;Helvetica&quot; style=&quot;font-size: 13px;&quot;&gt;h&lt;/font&gt;&lt;/i&gt;" style="text;html=1;align=center;verticalAlign=middle;whiteSpace=wrap;rounded=0;fontColor=light-dark(#000000,#000000);fontFamily=arial;" parent="1" vertex="1">
          <mxGeometry x="420" y="240" width="80" height="40" as="geometry" />
        </mxCell>
        <mxCell id="xkMQPIb6LYT8ctPKMse2-7" value="&lt;i&gt;&lt;font face=&quot;Helvetica&quot; style=&quot;font-size: 13px;&quot;&gt;r&lt;/font&gt;&lt;/i&gt;" style="text;html=1;align=center;verticalAlign=middle;whiteSpace=wrap;rounded=0;fontColor=light-dark(#000000,#000000);fontFamily=arial;" parent="1" vertex="1">
          <mxGeometry x="350" y="285" width="80" height="40" as="geometry" />
        </mxCell>
        <mxCell id="xkMQPIb6LYT8ctPKMse2-8" value="" style="endArrow=none;html=1;rounded=0;strokeColor=light-dark(#000000,#000000);" parent="1" edge="1">
          <mxGeometry width="50" height="50" relative="1" as="geometry">
            <mxPoint x="240" y="516" as="sourcePoint" />
            <mxPoint x="518" y="513" as="targetPoint" />
          </mxGeometry>
        </mxCell>
        <mxCell id="xkMQPIb6LYT8ctPKMse2-9" value="" style="endArrow=none;html=1;rounded=0;strokeColor=light-dark(#000000,#000000);" parent="1" edge="1">
          <mxGeometry width="50" height="50" relative="1" as="geometry">
            <mxPoint x="240" y="510" as="sourcePoint" />
            <mxPoint x="518" y="518" as="targetPoint" />
          </mxGeometry>
        </mxCell>
        <mxCell id="xkMQPIb6LYT8ctPKMse2-10" value="&lt;i&gt;&lt;font face=&quot;Helvetica&quot; style=&quot;font-size: 13px;&quot;&gt;g&lt;/font&gt;&lt;/i&gt;" style="text;html=1;align=center;verticalAlign=middle;whiteSpace=wrap;rounded=0;fontColor=light-dark(#000000,#000000);fontFamily=arial;" parent="1" vertex="1">
          <mxGeometry x="220" y="470" width="80" height="40" as="geometry" />
        </mxCell>
        <mxCell id="xkMQPIb6LYT8ctPKMse2-11" value="&lt;i&gt;&lt;font face=&quot;Helvetica&quot; style=&quot;font-size: 13px;&quot;&gt;h&lt;/font&gt;&lt;/i&gt;" style="text;html=1;align=center;verticalAlign=middle;whiteSpace=wrap;rounded=0;fontColor=light-dark(#000000,#000000);fontFamily=arial;" parent="1" vertex="1">
          <mxGeometry x="216" y="510" width="80" height="40" as="geometry" />
        </mxCell>
        <mxCell id="xkMQPIb6LYT8ctPKMse2-12" value="&lt;i&gt;&lt;font face=&quot;Helvetica&quot; style=&quot;font-size: 13px;&quot;&gt;r&lt;/font&gt;&lt;/i&gt;" style="text;html=1;align=center;verticalAlign=middle;whiteSpace=wrap;rounded=0;fontColor=light-dark(#000000,#000000);fontFamily=arial;" parent="1" vertex="1">
          <mxGeometry x="357" y="484" width="80" height="40" as="geometry" />
        </mxCell>
      </root>
    </mxGraphModel>
  </diagram>
</mxfile>
